<svg width="42" height="50" viewBox="0 0 42 50" fill="none" xmlns="http://www.w3.org/2000/svg">
<path d="M4.18787 23.0044C4.18787 20.321 6.36332 18.1453 9.04662 18.1453C11.73 18.1453 13.9054 20.3207 13.9054 23.0044C13.9054 25.6878 11.7299 27.8632 9.04662 27.8632C6.36349 27.8635 4.18787 25.6881 4.18787 23.0044Z" fill="#FF9B04"/>
<path d="M2.94415 13.7616C2.94415 11.4886 4.78611 9.64648 7.05857 9.64648C9.33103 9.64648 11.1737 11.4884 11.1737 13.7616C11.1737 16.034 9.33119 17.8771 7.05857 17.8771C4.78611 17.8769 2.94415 16.0345 2.94415 13.7616Z" fill="#FF9B04"/>
<path d="M8.38495 6.48441C8.38495 3.88691 10.4904 1.78149 13.0883 1.78149C15.6853 1.78149 17.7912 3.88695 17.7912 6.48441C17.7912 9.08187 15.6852 11.1877 13.0883 11.1877C10.49 11.1877 8.38495 9.08179 8.38495 6.48441Z" fill="#FF9B04"/>
<path d="M38.8125 15.0208C38.8125 12.8878 37.083 11.1588 34.95 11.1588C33.745 11.1588 32.6706 11.7102 31.9606 12.5738C32.0601 12.1889 32.1122 11.7848 32.1122 11.3688C32.1122 8.68534 29.9372 6.51001 27.2534 6.51001C24.5709 6.51001 22.3947 8.68497 22.3947 11.3688C22.3947 14.0522 24.5706 16.2279 27.2534 16.2279C28.8579 16.2279 30.2789 15.4504 31.1644 14.2518C31.1134 14.5009 31.0874 14.7579 31.0874 15.0214C31.0874 15.7014 31.2643 16.3404 31.5729 16.8949C31.0953 16.7719 30.5953 16.7074 30.0799 16.7074C26.778 16.7074 24.1003 19.3843 24.1003 22.6866C24.1003 25.9885 26.7779 28.6658 30.0799 28.6658C33.3825 28.6658 36.0595 25.9888 36.0595 22.6866C36.0595 21.2376 35.543 19.9086 34.6864 18.8736C34.7724 18.8796 34.8604 18.8842 34.9499 18.8842C37.0829 18.884 38.8124 17.154 38.8124 15.021L38.8125 15.0208Z" fill="#FF9B04"/>
<path d="M31.4591 6.93326C31.4591 4.8823 33.1211 3.22021 35.1712 3.22021C37.2231 3.22021 38.8852 4.88217 38.8852 6.93326C38.8852 8.98422 37.2233 10.6468 35.1712 10.6468C33.1211 10.6468 31.4591 8.98438 31.4591 6.93326Z" fill="#FF9B04"/>
<path d="M18.0071 3.74795C18.0071 1.6975 19.669 0.0349121 21.7185 0.0349121C23.7695 0.0349121 25.4325 1.69733 25.4325 3.74795C25.4325 5.79937 23.7696 7.46099 21.7185 7.46099C19.669 7.46083 18.0071 5.79887 18.0071 3.74795Z" fill="#FF9B04"/>
<path d="M33.2808 32.0421V33.9446H41.2371V43.4567H41.2156V48.5296C41.2156 49.3076 40.5855 49.9386 39.8075 49.9386H37.2431C36.4646 49.9386 35.8341 49.3071 35.8341 48.5296V43.4567H34.4521V48.5296C34.4521 49.3076 33.821 49.9386 33.0431 49.9386H30.4796C29.7011 49.9386 29.0706 49.3071 29.0706 48.5296V39.5396H27.7036V43.4126L14.1761 43.4125V39.5394H12.7291V48.529C12.7291 49.307 12.0981 49.938 11.3201 49.938H8.75616C7.97816 49.938 7.34716 49.3065 7.34716 48.529V43.4569H5.96516V48.5298C5.96516 49.3078 5.33461 49.9388 4.55616 49.9388H1.9927C1.2142 49.9388 0.584157 49.3073 0.584157 48.5298V33.9448L8.54499 33.9447V32.0422H0.58374V6.39551H1.92228L3.89528 28.6601H16.7624C15.6065 27.8346 14.8514 26.4832 14.8514 24.953C14.8514 23.3415 15.6894 21.927 16.9525 21.1181C14.3089 20.6931 12.2887 18.4026 12.2887 15.6385C12.2887 12.5724 14.7742 10.0881 17.84 10.0881C20.9054 10.0881 23.3904 12.5726 23.3904 15.6385C23.3904 17.7524 22.2089 19.59 20.4698 20.5277C22.4698 21.0077 23.9558 22.8066 23.9558 24.9535C23.9558 26.4835 23.2008 27.835 22.0449 28.6606H37.7149L39.6864 6.39597H41.2373V32.0426H33.2807L33.2808 32.0421ZM15.7333 40.7792C15.7333 41.4013 16.2383 41.9066 16.8603 41.9066C17.4833 41.9066 17.9877 41.4011 17.9877 40.7792C17.9877 40.1561 17.4827 39.6517 16.8603 39.6517C16.2382 39.6517 15.7333 40.1561 15.7333 40.7792ZM19.0307 40.7792C19.0307 41.4013 19.5357 41.9066 20.1581 41.9066C20.7807 41.9066 21.2856 41.4011 21.2856 40.7792C21.2856 40.1561 20.7806 39.6517 20.1581 39.6517C19.5357 39.6517 19.0307 40.1561 19.0307 40.7792ZM23.9324 40.7792C23.9324 41.4013 24.4364 41.9066 25.0593 41.9066C25.6814 41.9066 26.1863 41.4011 26.1863 40.7792C26.1863 40.1561 25.6812 39.6517 25.0593 39.6517C24.4364 39.6517 23.9324 40.1561 23.9324 40.7792Z" fill="#FF9B04"/>
</svg>
