<svg width="13" height="11" viewBox="0 0 13 11" fill="none" xmlns="http://www.w3.org/2000/svg">
<path d="M11.4056 0.748116C11.2651 0.758334 11.1273 0.791284 10.9974 0.845679H10.9956C10.871 0.895116 10.2781 1.14449 9.3769 1.52249L6.14727 2.88268C3.82984 3.8583 1.55177 4.81905 1.55177 4.81905L1.5789 4.80855C1.5789 4.80855 1.42184 4.86018 1.25777 4.97262C1.15642 5.03711 1.0692 5.1215 1.0014 5.22068C0.920898 5.3388 0.856148 5.51949 0.88021 5.7063C0.919585 6.02218 1.12434 6.21162 1.27134 6.31618C1.42009 6.42205 1.56184 6.47149 1.56184 6.47149H1.56534L3.70165 7.19118C3.79746 7.49874 4.35265 9.32399 4.48609 9.74443C4.56484 9.99555 4.6414 10.1526 4.73721 10.2725C4.78359 10.3337 4.83784 10.3849 4.90302 10.4261C4.93691 10.4458 4.97305 10.4613 5.01065 10.4724L4.98877 10.4672C4.99534 10.4689 5.00059 10.4742 5.0054 10.4759C5.0229 10.4807 5.03471 10.4825 5.05702 10.486C5.39521 10.5884 5.6669 10.3784 5.6669 10.3784L5.68221 10.3661L6.94352 9.21768L9.05752 10.8395L9.10565 10.8601C9.54621 11.0534 9.99246 10.9458 10.2283 10.7559C10.4658 10.5647 10.5581 10.3202 10.5581 10.3202L10.5735 10.2808L12.2071 1.91187C12.2535 1.70537 12.2653 1.51199 12.2141 1.3243C12.1613 1.13435 12.0394 0.970982 11.8724 0.866241C11.7321 0.780979 11.5695 0.739825 11.4056 0.748116ZM11.3614 1.64499C11.3596 1.67255 11.3649 1.66949 11.3526 1.72243V1.72724L9.73434 10.0091C9.72734 10.0209 9.71552 10.0467 9.68315 10.0726C9.64902 10.0997 9.6219 10.1167 9.47971 10.0603L6.89409 8.07799L5.33221 9.50162L5.66034 7.40599L9.88484 3.46849C10.059 3.30662 10.0008 3.27249 10.0008 3.27249C10.013 3.07387 9.73784 3.2143 9.73784 3.2143L4.41084 6.51437L4.40909 6.50562L1.85584 5.64593V5.64418L1.84927 5.64287C1.85375 5.64138 1.85813 5.63963 1.8624 5.63762L1.8764 5.63062L1.88996 5.6258C1.88996 5.6258 4.16977 4.66505 6.48721 3.68943C7.64746 3.20074 8.81646 2.70855 9.71552 2.3288C10.6146 1.95124 11.2791 1.6743 11.3168 1.65943C11.3526 1.64543 11.3356 1.64543 11.3614 1.64543V1.64499Z" fill="#777777"/>
</svg>
