<svg width="14" height="14" viewBox="0 0 14 14" fill="none" xmlns="http://www.w3.org/2000/svg">
<path d="M6.66921 0.00192075C5.60991 0.0147082 3.3325 0.188783 2.0587 1.3574C1.11118 2.29625 0.780358 3.68431 0.741583 5.40072C0.709408 7.11095 0.670633 10.3227 3.76645 11.1972V12.5291C3.76645 12.5291 3.74706 13.0621 4.09933 13.1714C4.53328 13.3088 4.78037 12.8987 5.19287 12.4582L5.96218 11.5882C8.08037 11.7644 9.70273 11.3585 9.8896 11.2982C10.3194 11.1609 12.7404 10.8515 13.136 7.63936C13.5419 4.32203 12.9384 2.2319 11.849 1.28645H11.8424C11.5136 0.983671 10.1924 0.0208957 7.24052 0.0101707C7.24052 0.0101707 7.02148 -0.00467925 6.66921 0.00150825V0.00192075ZM6.70551 0.934583C7.00622 0.932521 7.18896 0.945308 7.18896 0.945308C9.68747 0.951908 10.88 1.7039 11.1613 1.95717C12.0787 2.7434 12.5515 4.6277 12.2054 7.39722C11.8766 10.0826 9.91311 10.2525 9.5497 10.3685C9.39501 10.418 7.96611 10.7702 6.16596 10.6543C6.16596 10.6543 4.82533 12.2721 4.40623 12.6888C4.33982 12.7618 4.26227 12.7832 4.21277 12.7725C4.14182 12.7552 4.12037 12.6673 4.1245 12.5469L4.13728 10.3363C1.51172 9.61028 1.66641 6.87087 1.69446 5.43991C1.72663 4.00895 1.99517 2.83827 2.7946 2.04545C3.87081 1.07236 5.80461 0.941183 6.70468 0.934583H6.70551ZM6.90351 2.36513C6.8819 2.36492 6.86046 2.36898 6.84043 2.37708C6.82039 2.38519 6.80217 2.39718 6.78679 2.41237C6.77141 2.42755 6.75919 2.44563 6.75084 2.46556C6.74248 2.48549 6.73815 2.50687 6.7381 2.52848C6.7381 2.62088 6.81317 2.6939 6.90351 2.6939C7.3125 2.68612 7.71899 2.75939 8.09953 2.90948C8.48007 3.05957 8.82713 3.28351 9.1207 3.5684C9.72006 4.15043 10.0121 4.93253 10.0232 5.95512C10.0232 6.04546 10.0963 6.12053 10.1887 6.12053V6.11393C10.2322 6.11404 10.274 6.09693 10.305 6.06634C10.336 6.03574 10.3536 5.99413 10.3541 5.95058C10.3741 5.46926 10.296 4.98889 10.1247 4.53866C9.95325 4.08844 9.6921 3.67777 9.35706 3.33162C8.70407 2.69348 7.8766 2.36472 6.90351 2.36472V2.36513ZM4.72922 2.7434C4.61246 2.72634 4.49338 2.74977 4.3918 2.80981H4.38313C4.14729 2.94805 3.93483 3.12278 3.75366 3.3275C3.6031 3.50157 3.52142 3.67771 3.49997 3.84725C3.48718 3.94831 3.49585 4.04937 3.52596 4.1459L3.53668 4.1525C3.70622 4.6508 3.92773 5.13012 4.19833 5.5814C4.5469 6.21539 4.97588 6.80172 5.47461 7.32586L5.48946 7.34731L5.51297 7.36463L5.52782 7.38196L5.54515 7.39681C6.07118 7.897 6.65893 8.32798 7.29415 8.67927C8.02015 9.07444 8.46069 9.26131 8.72511 9.33886V9.34298C8.80266 9.3665 8.87319 9.37722 8.94415 9.37722C9.16949 9.36071 9.38282 9.26922 9.55011 9.11735C9.75389 8.93612 9.92667 8.7228 10.0616 8.48581V8.48168C10.1882 8.24326 10.1453 8.01762 9.96261 7.865C9.59664 7.5451 9.2009 7.26097 8.7808 7.01648C8.49947 6.86386 8.21361 6.95626 8.09769 7.11095L7.85061 7.42238C7.72397 7.57707 7.4938 7.55562 7.4938 7.55562L7.4872 7.55975C5.77078 7.12126 5.31291 5.3834 5.31291 5.3834C5.31291 5.3834 5.29146 5.14703 5.45027 5.02658L5.75965 4.77743C5.90773 4.65698 6.01086 4.37153 5.85205 4.0898C5.60925 3.66911 5.32574 3.27327 5.0056 2.90798C4.93561 2.82187 4.83742 2.76327 4.7284 2.74257L4.72922 2.7434ZM7.18896 3.23345C6.96992 3.23345 6.96992 3.56427 7.19102 3.56427C7.46339 3.56869 7.73221 3.62674 7.98213 3.7351C8.23205 3.84346 8.45817 4.00001 8.64756 4.19581C8.82032 4.38639 8.95308 4.6097 9.03797 4.85252C9.12285 5.09535 9.15814 5.35274 9.14173 5.60945C9.14249 5.65289 9.16022 5.69431 9.19114 5.72484C9.22205 5.75537 9.26369 5.77259 9.30715 5.7728L9.31374 5.78146C9.35752 5.78113 9.3994 5.7636 9.43035 5.73265C9.4613 5.7017 9.47883 5.65982 9.47916 5.61605C9.49401 4.96058 9.29023 4.41072 8.89052 3.97017C8.48875 3.52962 7.92816 3.28253 7.21247 3.23345H7.18896ZM7.45997 4.1228C7.23433 4.1162 7.22567 4.45362 7.44925 4.46022C7.99292 4.48827 8.25692 4.763 8.29157 5.32812C8.29232 5.37102 8.30984 5.41192 8.34037 5.44206C8.3709 5.4722 8.41202 5.4892 8.45492 5.48941H8.46152C8.48358 5.48846 8.50523 5.48313 8.5252 5.47373C8.54518 5.46433 8.56308 5.45104 8.57786 5.43464C8.59265 5.41824 8.60402 5.39907 8.61131 5.37823C8.6186 5.35739 8.62167 5.33531 8.62033 5.31327C8.58156 4.57655 8.17978 4.16157 7.46657 4.12321H7.45997V4.1228Z" fill="#777777"/>
</svg>
