<svg width="12" height="12" viewBox="0 0 12 12" fill="none" xmlns="http://www.w3.org/2000/svg">
<path d="M9.87747 2.10053C9.37323 1.59119 8.77262 1.18735 8.11067 0.912561C7.44872 0.637772 6.73868 0.497536 6.02197 0.500033C3.01897 0.500033 0.571466 2.94753 0.571466 5.95053C0.571466 6.91303 0.824466 7.84803 1.29747 8.67303L0.527466 11.5L3.41497 10.741C4.21247 11.1755 5.10897 11.4065 6.02197 11.4065C9.02497 11.4065 11.4725 8.95903 11.4725 5.95603C11.4725 4.49853 10.906 3.12903 9.87747 2.10053ZM6.02197 10.4825C5.20797 10.4825 4.41047 10.2625 3.71197 9.85003L3.54697 9.75103L1.83097 10.202L2.28747 8.53003L2.17747 8.35953C1.72523 7.63737 1.48509 6.80262 1.48447 5.95053C1.48447 3.45353 3.51947 1.41853 6.01647 1.41853C7.22647 1.41853 8.36497 1.89153 9.21747 2.74953C9.63958 3.16971 9.9741 3.6695 10.2016 4.21992C10.4292 4.77034 10.5452 5.36044 10.543 5.95603C10.554 8.45303 8.51897 10.4825 6.02197 10.4825ZM8.50797 7.09453C8.37047 7.02853 7.69947 6.69853 7.57847 6.64903C7.45197 6.60503 7.36397 6.58303 7.27047 6.71503C7.17697 6.85253 6.91847 7.16053 6.84147 7.24853C6.76447 7.34203 6.68197 7.35303 6.54447 7.28153C6.40697 7.21553 5.96697 7.06703 5.44997 6.60503C5.04297 6.24203 4.77347 5.79653 4.69097 5.65903C4.61397 5.52153 4.67997 5.45003 4.75147 5.37853C4.81197 5.31803 4.88897 5.21903 4.95497 5.14203C5.02097 5.06503 5.04847 5.00453 5.09247 4.91653C5.13647 4.82303 5.11447 4.74603 5.08147 4.68003C5.04847 4.61403 4.77347 3.94303 4.66347 3.66803C4.55347 3.40403 4.43797 3.43703 4.35547 3.43153H4.09147C3.99797 3.43153 3.85497 3.46453 3.72847 3.60203C3.60747 3.73953 3.25547 4.06953 3.25547 4.74053C3.25547 5.41153 3.74497 6.06053 3.81097 6.14853C3.87697 6.24203 4.77347 7.61703 6.13747 8.20553C6.46197 8.34853 6.71497 8.43103 6.91297 8.49153C7.23747 8.59603 7.53447 8.57953 7.77097 8.54653C8.03497 8.50803 8.57947 8.21653 8.68947 7.89753C8.80497 7.57853 8.80497 7.30903 8.76647 7.24853C8.72797 7.18803 8.64547 7.16053 8.50797 7.09453Z" fill="#777777"/>
</svg>
